<svg width="24" height="24" viewBox="0 0 24 24" fill="none" xmlns="http://www.w3.org/2000/svg">
<rect width="24" height="24" fill="white"/>
<path d="M7.77778 4.05131L14.8225 11.0955C15.2094 11.4823 15.2136 12.1083 14.8319 12.5002L7.7778 19.7446C5.05811 21.837 1.91945 18.2799 3.59319 15.769L7.35983 11.7932L3.59319 8.02694C1.70992 5.51601 4.63945 1.95886 7.77778 4.05131Z" fill="#FCE700"/>
<path fill-rule="evenodd" clip-rule="evenodd" d="M15.1761 12.1467C15.367 11.9508 15.3649 11.6378 15.1714 11.4444L7.77778 4.05131C4.63945 1.95886 1.70992 5.51601 3.59319 8.02694L7.35983 11.7932L3.59319 15.769C1.91945 18.2799 5.05811 21.837 7.7778 19.7446L15.1761 12.1467ZM7.11522 18.9917L14.1155 11.8026L7.14499 4.83272C6.01705 4.12209 5.07249 4.42443 4.5294 4.99947C3.94657 5.6166 3.78439 6.56514 4.35525 7.37478L8.06691 11.0861C8.45002 11.4692 8.45839 12.0877 8.08577 12.481L4.3843 16.388C3.91706 17.1562 4.10923 18.1218 4.75497 18.786C5.07615 19.1164 5.46805 19.3191 5.86097 19.3665C6.22264 19.4101 6.65076 19.3312 7.11522 18.9917Z" fill="#0065A4"/>
<path fill-rule="evenodd" clip-rule="evenodd" d="M19.6256 4.02555C18.5967 2.93608 16.8532 2.54342 15.1138 3.70315L15.0795 3.72603L11.9111 6.88871C11.7475 7.05199 11.7473 7.31696 11.9106 7.48054C12.0739 7.64411 12.3388 7.64435 12.5024 7.48107L15.6117 4.37735C16.9977 3.47229 18.2735 3.81286 19.0171 4.60023C19.7779 5.4058 19.9978 6.68389 19.2129 7.75281L15.8865 11.0789C15.7231 11.2423 15.7231 11.5073 15.8865 11.6707C16.0499 11.8341 16.3149 11.8341 16.4783 11.6707L19.8475 8.30187L19.8653 8.27808C20.9434 6.84069 20.6378 5.09737 19.6256 4.02555Z" fill="#0065A4"/>
<path fill-rule="evenodd" clip-rule="evenodd" d="M19.6256 19.9744C18.5967 21.0639 16.8532 21.4566 15.1138 20.2969L15.0793 20.2739L11.9109 17.1061C11.7474 16.9426 11.7474 16.6777 11.9108 16.5142C12.0742 16.3508 12.3392 16.3507 12.5027 16.5142L15.6118 19.6227C16.9978 20.5277 18.2735 20.1871 19.0171 19.3998C19.7779 18.5942 19.9978 17.3161 19.2129 16.2472L15.8865 12.9211C15.7231 12.7577 15.7231 12.4927 15.8865 12.3293C16.0499 12.1659 16.3149 12.1659 16.4783 12.3293L19.8475 15.6981L19.8653 15.7219C20.9434 17.1593 20.6378 18.9026 19.6256 19.9744Z" fill="#0065A4"/>
</svg>
