<svg width="24" height="24" viewBox="0 0 24 24" fill="none" xmlns="http://www.w3.org/2000/svg">
<path d="M2 6C2 5.86739 2.05017 5.74021 2.13947 5.64645C2.22878 5.55268 2.3499 5.5 2.47619 5.5L21.5238 5.5C21.6501 5.5 21.7712 5.55268 21.8605 5.64645C21.9498 5.74021 22 5.86739 22 6C22 6.13261 21.9498 6.25978 21.8605 6.35355C21.7712 6.44732 21.6501 6.5 21.5238 6.5L2.47619 6.5C2.3499 6.5 2.22878 6.44732 2.13947 6.35355C2.05017 6.25979 2 6.13261 2 6Z" fill="#0E1DA3"/>
<path d="M2 18C2 17.8674 2.05017 17.7402 2.13947 17.6464C2.22878 17.5527 2.3499 17.5 2.47619 17.5L21.5238 17.5C21.6501 17.5 21.7712 17.5527 21.8605 17.6464C21.9498 17.7402 22 17.8674 22 18C22 18.1326 21.9498 18.2598 21.8605 18.3536C21.7712 18.4473 21.6501 18.5 21.5238 18.5L2.47619 18.5C2.3499 18.5 2.22878 18.4473 2.13947 18.3536C2.05017 18.2598 2 18.1326 2 18Z" fill="#0E1DA3"/>
<path d="M2 12C2 11.8674 2.05017 11.7402 2.13947 11.6464C2.22878 11.5527 2.3499 11.5 2.47619 11.5L21.5238 11.5C21.6501 11.5 21.7712 11.5527 21.8605 11.6464C21.9498 11.7402 22 11.8674 22 12C22 12.1326 21.9498 12.2598 21.8605 12.3536C21.7712 12.4473 21.6501 12.5 21.5238 12.5L2.47619 12.5C2.3499 12.5 2.22878 12.4473 2.13947 12.3536C2.05017 12.2598 2 12.1326 2 12Z" fill="#0E1DA3"/>
</svg>
