<svg width="16" height="16" viewBox="0 0 16 16" fill="none" xmlns="http://www.w3.org/2000/svg">
<path fill-rule="evenodd" clip-rule="evenodd" d="M10.0656 5.58232L8.53396 2.32433C8.47775 2.22605 8.40281 2.14742 8.30913 2.08845C8.21546 2.02948 8.11241 2 8 2C7.88759 2 7.78454 2.02948 7.69087 2.08845C7.59719 2.14742 7.52225 2.22605 7.46604 2.32433L5.93443 5.58232L2.51991 6.09829C2.37002 6.11794 2.24356 6.18673 2.14052 6.30467C2.04684 6.4226 2 6.5602 2 6.71745C2 6.8059 2.01405 6.88943 2.04215 6.96806C2.07963 7.04668 2.12646 7.11548 2.18267 7.17445L4.65574 9.69533L4.07963 13.2629C4.07026 13.2826 4.06557 13.3022 4.06557 13.3219V13.3808C4.06557 13.5479 4.12178 13.6953 4.23419 13.8231C4.35597 13.941 4.50117 14 4.66979 14C4.71663 14 4.76347 13.9951 4.8103 13.9853C4.85714 13.9754 4.90398 13.9558 4.95082 13.9263L8 12.2457L11.0492 13.9263C11.096 13.9558 11.1429 13.9754 11.1897 13.9853C11.2365 13.9951 11.2834 14 11.3302 14C11.4988 14 11.6393 13.941 11.7518 13.8231C11.8735 13.6953 11.9344 13.5479 11.9344 13.3808V13.3219C11.9344 13.3022 11.9297 13.2826 11.9204 13.2629L11.3443 9.69533L13.8173 7.17445C13.8735 7.11548 13.9157 7.04668 13.9438 6.96806C13.9488 6.95752 13.9535 6.94691 13.9578 6.9362C13.963 6.92349 13.9677 6.91067 13.9719 6.89772C13.9906 6.84009 14 6.77999 14 6.71745C14 6.68796 13.9953 6.65848 13.9859 6.629C13.9859 6.6012 13.9813 6.57586 13.9719 6.55298C13.9686 6.54496 13.9648 6.53723 13.9603 6.52982C13.9595 6.52847 13.9587 6.52713 13.9578 6.5258H13.9719C13.9711 6.52336 13.9702 6.52094 13.9693 6.51851C13.9657 6.50857 13.9619 6.49875 13.9578 6.48906C13.919 6.3964 13.8581 6.31528 13.7752 6.24571C13.6909 6.16708 13.5925 6.11794 13.4801 6.09829L10.0656 5.58232Z" fill="#FCE700"/>
<path fill-rule="evenodd" clip-rule="evenodd" d="M10.0656 5.58231L8.53396 2.32432C8.47775 2.22604 8.40281 2.14742 8.30913 2.08845C8.21546 2.02948 8.11241 2 8 2C7.88759 2 7.78454 2.02948 7.69087 2.08845C7.59719 2.14742 7.52225 2.22604 7.46604 2.32432L5.93443 5.58231L2.51991 6.09828C2.37002 6.11794 2.24356 6.18673 2.14052 6.30467C2.04684 6.4226 2 6.5602 2 6.71744C2 6.8059 2.01405 6.88944 2.04215 6.96806C2.07963 7.04668 2.12646 7.11548 2.18267 7.17445L4.65574 9.69533L4.07963 13.2629C4.07026 13.2826 4.06557 13.3022 4.06557 13.3219V13.3808C4.06557 13.5479 4.12178 13.6953 4.23419 13.8231C4.35597 13.941 4.50117 14 4.66979 14C4.71663 14 4.76347 13.9951 4.8103 13.9853C4.85714 13.9754 4.90398 13.9558 4.95082 13.9263L8 12.2457L11.0492 13.9263C11.096 13.9558 11.1429 13.9754 11.1897 13.9853C11.2365 13.9951 11.2834 14 11.3302 14C11.4988 14 11.6393 13.941 11.7518 13.8231C11.8735 13.6953 11.9344 13.5479 11.9344 13.3808V13.3219C11.9344 13.3022 11.9297 13.2826 11.9204 13.2629L11.3443 9.69533L13.8173 7.17445C13.8735 7.11548 13.9157 7.04668 13.9438 6.96806C13.9488 6.95753 13.9535 6.9469 13.9578 6.93619C13.963 6.92349 13.9677 6.91066 13.9719 6.89771C13.9906 6.84008 14 6.77999 14 6.71744C14 6.68796 13.9953 6.65848 13.9859 6.62899C13.9859 6.6012 13.9813 6.57586 13.9719 6.55297C13.9686 6.54495 13.9648 6.53723 13.9603 6.52981C13.9595 6.52846 13.9587 6.52713 13.9578 6.5258H13.9719C13.9711 6.52336 13.9702 6.52093 13.9693 6.51851C13.9657 6.50857 13.9619 6.49875 13.9578 6.48906C13.919 6.3964 13.8581 6.31528 13.7752 6.2457C13.6909 6.16708 13.5925 6.11794 13.4801 6.09828L10.0656 5.58231ZM13.3975 6.59148L9.72673 6.03678L8.0924 2.5603C8.07794 2.53846 8.06203 2.52372 8.04277 2.5116C8.03016 2.50366 8.01971 2.5 8 2.5C7.98029 2.5 7.96984 2.50366 7.95723 2.5116C7.93797 2.52372 7.92206 2.53846 7.9076 2.5603L6.27327 6.03678L2.58977 6.5934L2.58492 6.59404C2.56306 6.5969 2.54701 6.60237 2.52528 6.62469C2.50925 6.64763 2.5 6.6736 2.5 6.71744C2.5 6.74099 2.50247 6.76072 2.50647 6.7777C2.51834 6.79833 2.53063 6.81451 2.54282 6.82758L5.18963 9.52557L4.56571 13.3892C4.56683 13.422 4.57491 13.4479 4.59651 13.4768C4.61878 13.4946 4.63837 13.5 4.66979 13.5C4.67674 13.5 4.684 13.4996 4.69167 13.4986L4.69675 13.4954L8 11.6748L11.3033 13.4954L11.3083 13.4986C11.316 13.4996 11.3233 13.5 11.3302 13.5C11.3552 13.5 11.3658 13.4959 11.3686 13.4947C11.371 13.4937 11.3778 13.4907 11.3898 13.4781C11.425 13.4412 11.4331 13.4164 11.4343 13.389L10.8104 9.52557L13.4568 6.82799C13.4629 6.82125 13.4682 6.81322 13.473 6.79977L13.4815 6.77586L13.4924 6.75295C13.4943 6.74908 13.4958 6.74528 13.497 6.74123L13.4916 6.72438L13.4093 6.59479C13.4056 6.5934 13.4018 6.59235 13.3975 6.59148Z" fill="#047AC2"/>
</svg>
